<mxfile host="Electron" modified="2023-06-19T07:21:26.287Z" agent="Mozilla/5.0 (Macintosh; Intel Mac OS X 10_15_7) AppleWebKit/537.36 (KHTML, like Gecko) draw.io/21.4.0 Chrome/112.0.5615.204 Electron/24.5.1 Safari/537.36" etag="x0MreOhAG5AAhmEsHRcI" version="21.4.0" type="device" pages="2">
  <diagram id="C5RBs43oDa-KdzZeNtuy" name="Page-1">
    <mxGraphModel dx="1948" dy="1312" grid="0" gridSize="10" guides="1" tooltips="1" connect="1" arrows="1" fold="1" page="1" pageScale="1" pageWidth="2500" pageHeight="2000" background="none" math="0" shadow="0">
      <root>
        <mxCell id="WIyWlLk6GJQsqaUBKTNV-0" />
        <mxCell id="WIyWlLk6GJQsqaUBKTNV-1" parent="WIyWlLk6GJQsqaUBKTNV-0" />
        <mxCell id="zkfFHV4jXpPFQw0GAbJ--6" value="GameObject" style="swimlane;fontStyle=0;align=center;verticalAlign=top;childLayout=stackLayout;horizontal=1;startSize=26;horizontalStack=0;resizeParent=1;resizeLast=0;collapsible=1;marginBottom=0;rounded=0;shadow=0;strokeWidth=1;" parent="WIyWlLk6GJQsqaUBKTNV-1" vertex="1">
          <mxGeometry x="1135" y="353" width="160" height="214" as="geometry">
            <mxRectangle x="130" y="380" width="160" height="26" as="alternateBounds" />
          </mxGeometry>
        </mxCell>
        <mxCell id="zkfFHV4jXpPFQw0GAbJ--7" value="- x : double&#xa;- y : double&#xa;+ rand : Random&#xa;" style="text;align=left;verticalAlign=top;spacingLeft=4;spacingRight=4;overflow=hidden;rotatable=0;points=[[0,0.5],[1,0.5]];portConstraint=eastwest;" parent="zkfFHV4jXpPFQw0GAbJ--6" vertex="1">
          <mxGeometry y="26" width="160" height="63" as="geometry" />
        </mxCell>
        <mxCell id="zkfFHV4jXpPFQw0GAbJ--9" value="" style="line;html=1;strokeWidth=1;align=left;verticalAlign=middle;spacingTop=-1;spacingLeft=3;spacingRight=3;rotatable=0;labelPosition=right;points=[];portConstraint=eastwest;" parent="zkfFHV4jXpPFQw0GAbJ--6" vertex="1">
          <mxGeometry y="89" width="160" height="8" as="geometry" />
        </mxCell>
        <mxCell id="iKvbDmAeb83sAeLD34LN-2" value="+ getX() : double&#xa;+ getY() : double&#xa;+ setX(b: double) : void&#xa;+ setY(b : double) : void&#xa;+ toString() : String&#xa;+ move() : void&#xa;+ handleCollide : void&#xa;" style="text;align=left;verticalAlign=top;spacingLeft=4;spacingRight=4;overflow=hidden;rotatable=0;points=[[0,0.5],[1,0.5]];portConstraint=eastwest;" parent="zkfFHV4jXpPFQw0GAbJ--6" vertex="1">
          <mxGeometry y="97" width="160" height="117" as="geometry" />
        </mxCell>
        <mxCell id="zkfFHV4jXpPFQw0GAbJ--17" value="StartClass" style="swimlane;fontStyle=0;align=center;verticalAlign=top;childLayout=stackLayout;horizontal=1;startSize=26;horizontalStack=0;resizeParent=1;resizeLast=0;collapsible=1;marginBottom=0;rounded=0;shadow=0;strokeWidth=1;" parent="WIyWlLk6GJQsqaUBKTNV-1" vertex="1">
          <mxGeometry x="1594" y="89" width="161" height="157" as="geometry">
            <mxRectangle x="550" y="140" width="160" height="26" as="alternateBounds" />
          </mxGeometry>
        </mxCell>
        <mxCell id="zkfFHV4jXpPFQw0GAbJ--18" value="- current : Form&#xa;- theme : Resources&#xa;" style="text;align=left;verticalAlign=top;spacingLeft=4;spacingRight=4;overflow=hidden;rotatable=0;points=[[0,0.5],[1,0.5]];portConstraint=eastwest;" parent="zkfFHV4jXpPFQw0GAbJ--17" vertex="1">
          <mxGeometry y="26" width="161" height="43" as="geometry" />
        </mxCell>
        <mxCell id="zkfFHV4jXpPFQw0GAbJ--23" value="" style="line;html=1;strokeWidth=1;align=left;verticalAlign=middle;spacingTop=-1;spacingLeft=3;spacingRight=3;rotatable=0;labelPosition=right;points=[];portConstraint=eastwest;" parent="zkfFHV4jXpPFQw0GAbJ--17" vertex="1">
          <mxGeometry y="69" width="161" height="8" as="geometry" />
        </mxCell>
        <mxCell id="zkfFHV4jXpPFQw0GAbJ--24" value="+ init(context: Object) : void&#xa;+ start() : void&#xa;+ stop() : void&#xa;+ destroy() : void&#xa;" style="text;align=left;verticalAlign=top;spacingLeft=4;spacingRight=4;overflow=hidden;rotatable=0;points=[[0,0.5],[1,0.5]];portConstraint=eastwest;" parent="zkfFHV4jXpPFQw0GAbJ--17" vertex="1">
          <mxGeometry y="77" width="161" height="67" as="geometry" />
        </mxCell>
        <mxCell id="lJ6aVyWYcNpA8rli7bff-1" value="SacRun" style="swimlane;fontStyle=0;align=center;verticalAlign=top;childLayout=stackLayout;horizontal=1;startSize=26;horizontalStack=0;resizeParent=1;resizeLast=0;collapsible=1;marginBottom=0;rounded=0;shadow=0;strokeWidth=1;" parent="WIyWlLk6GJQsqaUBKTNV-1" vertex="1">
          <mxGeometry x="924" y="36" width="204" height="266" as="geometry">
            <mxRectangle x="550" y="140" width="160" height="26" as="alternateBounds" />
          </mxGeometry>
        </mxCell>
        <mxCell id="lJ6aVyWYcNpA8rli7bff-2" value="- gm: GameModel&#xa;- status : ViewStatus&#xa;- message: ViewMessage&#xa;- cmds: ViewCommands&#xa;- menu: ViewMenu&#xa;- changeStrategies: CommandButton&#xa;- about: CommandButton&#xa;- exit: CommandButton&#xa;- myToolbar: ToolBar" style="text;align=left;verticalAlign=top;spacingLeft=4;spacingRight=4;overflow=hidden;rotatable=0;points=[[0,0.5],[1,0.5]];portConstraint=eastwest;" parent="lJ6aVyWYcNpA8rli7bff-1" vertex="1">
          <mxGeometry y="26" width="204" height="149" as="geometry" />
        </mxCell>
        <mxCell id="lJ6aVyWYcNpA8rli7bff-4" value="" style="line;html=1;strokeWidth=1;align=left;verticalAlign=middle;spacingTop=-1;spacingLeft=3;spacingRight=3;rotatable=0;labelPosition=right;points=[];portConstraint=eastwest;" parent="lJ6aVyWYcNpA8rli7bff-1" vertex="1">
          <mxGeometry y="175" width="204" height="8" as="geometry" />
        </mxCell>
        <mxCell id="lJ6aVyWYcNpA8rli7bff-5" value="+ SacRun()" style="text;align=left;verticalAlign=top;spacingLeft=4;spacingRight=4;overflow=hidden;rotatable=0;points=[[0,0.5],[1,0.5]];portConstraint=eastwest;" parent="lJ6aVyWYcNpA8rli7bff-1" vertex="1">
          <mxGeometry y="183" width="204" height="26" as="geometry" />
        </mxCell>
        <mxCell id="lJ6aVyWYcNpA8rli7bff-6" value="+ A2 : void" style="text;align=left;verticalAlign=top;spacingLeft=4;spacingRight=4;overflow=hidden;rotatable=0;points=[[0,0.5],[1,0.5]];portConstraint=eastwest;" parent="lJ6aVyWYcNpA8rli7bff-1" vertex="1">
          <mxGeometry y="209" width="204" height="57" as="geometry" />
        </mxCell>
        <mxCell id="lJ6aVyWYcNpA8rli7bff-12" value="GameModel" style="swimlane;fontStyle=0;align=center;verticalAlign=top;childLayout=stackLayout;horizontal=1;startSize=26;horizontalStack=0;resizeParent=1;resizeLast=0;collapsible=1;marginBottom=0;rounded=0;shadow=0;strokeWidth=1;" parent="WIyWlLk6GJQsqaUBKTNV-1" vertex="1">
          <mxGeometry x="808" y="338" width="259" height="405" as="geometry">
            <mxRectangle x="550" y="140" width="160" height="26" as="alternateBounds" />
          </mxGeometry>
        </mxCell>
        <mxCell id="lJ6aVyWYcNpA8rli7bff-15" value="" style="line;html=1;strokeWidth=1;align=left;verticalAlign=middle;spacingTop=-1;spacingLeft=3;spacingRight=3;rotatable=0;labelPosition=right;points=[];portConstraint=eastwest;" parent="lJ6aVyWYcNpA8rli7bff-12" vertex="1">
          <mxGeometry y="26" width="259" height="8" as="geometry" />
        </mxCell>
        <mxCell id="lJ6aVyWYcNpA8rli7bff-13" value="- width : double&#xa;- height : double&#xa;- gameTime : double&#xa;- objects : Vector&lt;GameObject&gt;&#xa;+ rand : Random&#xa;+ currentCollection: GameObjectCollection&#xa;+ latestMessage : String" style="text;align=left;verticalAlign=top;spacingLeft=4;spacingRight=4;overflow=hidden;rotatable=0;points=[[0,0.5],[1,0.5]];portConstraint=eastwest;" parent="lJ6aVyWYcNpA8rli7bff-12" vertex="1">
          <mxGeometry y="34" width="259" height="118" as="geometry" />
        </mxCell>
        <mxCell id="lJ6aVyWYcNpA8rli7bff-16" value="+ GameModel()&#xa;+ movePlayer() : void&#xa;+ stopPlayer() : void&#xa;+ goLeft() : void&#xa;+ goRight() : void&#xa;+ hallCollision() : void&#xa;+ restroomCollision() : void&#xa;+ waterCollision() : void&#xa;+ studentCollision() : void&#xa;+ nextFrame() : void+ printOutput() : void&#xa;+ invalidInput() : void&#xa;+ init() : void&#xa;+ setLatestMessage (s : String)&#xa;+ getLatestMessage : void&#xa;&#xa;&#xa;&#xa;" style="text;align=left;verticalAlign=top;spacingLeft=4;spacingRight=4;overflow=hidden;rotatable=0;points=[[0,0.5],[1,0.5]];portConstraint=eastwest;" parent="lJ6aVyWYcNpA8rli7bff-12" vertex="1">
          <mxGeometry y="152" width="259" height="238" as="geometry" />
        </mxCell>
        <mxCell id="lJ6aVyWYcNpA8rli7bff-18" value="" style="endArrow=open;html=1;rounded=0;endFill=0;exitX=1;exitY=0.5;exitDx=0;exitDy=0;entryX=1;entryY=0.5;entryDx=0;entryDy=0;" parent="WIyWlLk6GJQsqaUBKTNV-1" source="lJ6aVyWYcNpA8rli7bff-20" target="lJ6aVyWYcNpA8rli7bff-5" edge="1">
          <mxGeometry width="50" height="50" relative="1" as="geometry">
            <mxPoint x="1477" y="404" as="sourcePoint" />
            <mxPoint x="1103" y="242" as="targetPoint" />
            <Array as="points" />
          </mxGeometry>
        </mxCell>
        <mxCell id="lJ6aVyWYcNpA8rli7bff-20" value="Form" style="rounded=0;whiteSpace=wrap;html=1;" parent="WIyWlLk6GJQsqaUBKTNV-1" vertex="1">
          <mxGeometry x="1277" y="120" width="120" height="60" as="geometry" />
        </mxCell>
        <mxCell id="lJ6aVyWYcNpA8rli7bff-25" value="Building" style="swimlane;fontStyle=0;align=center;verticalAlign=top;childLayout=stackLayout;horizontal=1;startSize=26;horizontalStack=0;resizeParent=1;resizeLast=0;collapsible=1;marginBottom=0;rounded=0;shadow=0;strokeWidth=1;" parent="WIyWlLk6GJQsqaUBKTNV-1" vertex="1">
          <mxGeometry x="1140" y="642" width="128" height="91" as="geometry">
            <mxRectangle x="550" y="140" width="160" height="26" as="alternateBounds" />
          </mxGeometry>
        </mxCell>
        <mxCell id="lJ6aVyWYcNpA8rli7bff-29" value="+ Building()&#xa;+ move() : void&#xa;+ toString : String&#xa;" style="text;align=left;verticalAlign=top;spacingLeft=4;spacingRight=4;overflow=hidden;rotatable=0;points=[[0,0.5],[1,0.5]];portConstraint=eastwest;" parent="lJ6aVyWYcNpA8rli7bff-25" vertex="1">
          <mxGeometry y="26" width="128" height="58" as="geometry" />
        </mxCell>
        <mxCell id="lJ6aVyWYcNpA8rli7bff-31" value="Student&#xa;" style="swimlane;fontStyle=0;align=center;verticalAlign=top;childLayout=stackLayout;horizontal=1;startSize=26;horizontalStack=0;resizeParent=1;resizeLast=0;collapsible=1;marginBottom=0;rounded=0;shadow=0;strokeWidth=1;" parent="WIyWlLk6GJQsqaUBKTNV-1" vertex="1">
          <mxGeometry x="1768" y="227" width="213" height="479" as="geometry">
            <mxRectangle x="550" y="140" width="160" height="26" as="alternateBounds" />
          </mxGeometry>
        </mxCell>
        <mxCell id="lJ6aVyWYcNpA8rli7bff-32" value="- head : double&#xa;- speed : double&#xa;- talkingTime : double&#xa;- timeRemain:double&#xa;- Hydration : double&#xa;- waterIntake : double&#xa;- sweatingRate : double&#xa;- absenceTime : double&#xa;- currentStrategy : IStrategy&#xa;- aStrategy : IStrategy" style="text;align=left;verticalAlign=top;spacingLeft=4;spacingRight=4;overflow=hidden;rotatable=0;points=[[0,0.5],[1,0.5]];portConstraint=eastwest;" parent="lJ6aVyWYcNpA8rli7bff-31" vertex="1">
          <mxGeometry y="26" width="213" height="169" as="geometry" />
        </mxCell>
        <mxCell id="lJ6aVyWYcNpA8rli7bff-34" value="" style="line;html=1;strokeWidth=1;align=left;verticalAlign=middle;spacingTop=-1;spacingLeft=3;spacingRight=3;rotatable=0;labelPosition=right;points=[];portConstraint=eastwest;" parent="lJ6aVyWYcNpA8rli7bff-31" vertex="1">
          <mxGeometry y="195" width="213" height="8" as="geometry" />
        </mxCell>
        <mxCell id="lJ6aVyWYcNpA8rli7bff-35" value="+ Student()&#xa;+ getSpeed() : double&#xa;+ getHead() : double&#xa;+ getTimeRemain() : double&#xa;+ getWaterIntake() : double&#xa;+ getHydration() : double&#xa;+ getAbsenceTime() : double&#xa;+ getSweatingRate() : double&#xa;+ getTalkingTime() : double&#xa;+ setSpeed(s : double) : void&#xa;+ setHead(h : double) : void&#xa;+ setTimeRemain( t : double) : void&#xa;+ setWaterIntake(f : double) : void&#xa;+ setHydration(h : double) : void&#xa;+ setAbsenceTime(a : double) : void&#xa;+ setSweatingRate(r : double) : void&#xa;+ setTalkingTime(t : double) : void&#xa;+ setStrategy() : void" style="text;align=left;verticalAlign=top;spacingLeft=4;spacingRight=4;overflow=hidden;rotatable=0;points=[[0,0.5],[1,0.5]];portConstraint=eastwest;" parent="lJ6aVyWYcNpA8rli7bff-31" vertex="1">
          <mxGeometry y="203" width="213" height="276" as="geometry" />
        </mxCell>
        <mxCell id="lJ6aVyWYcNpA8rli7bff-37" value="WaterDispenser" style="swimlane;fontStyle=0;align=center;verticalAlign=top;childLayout=stackLayout;horizontal=1;startSize=26;horizontalStack=0;resizeParent=1;resizeLast=0;collapsible=1;marginBottom=0;rounded=0;shadow=0;strokeWidth=1;" parent="WIyWlLk6GJQsqaUBKTNV-1" vertex="1">
          <mxGeometry x="1101" y="915.5" width="200" height="82" as="geometry">
            <mxRectangle x="550" y="140" width="160" height="26" as="alternateBounds" />
          </mxGeometry>
        </mxCell>
        <mxCell id="lJ6aVyWYcNpA8rli7bff-42" value="+ WaterDispenser()&#xa;+ handleCollide(s : student) : void&#xa;" style="text;align=left;verticalAlign=top;spacingLeft=4;spacingRight=4;overflow=hidden;rotatable=0;points=[[0,0.5],[1,0.5]];portConstraint=eastwest;" parent="lJ6aVyWYcNpA8rli7bff-37" vertex="1">
          <mxGeometry y="26" width="200" height="48" as="geometry" />
        </mxCell>
        <mxCell id="lJ6aVyWYcNpA8rli7bff-43" value="LectureHall" style="swimlane;fontStyle=0;align=center;verticalAlign=top;childLayout=stackLayout;horizontal=1;startSize=26;horizontalStack=0;resizeParent=1;resizeLast=0;collapsible=1;marginBottom=0;rounded=0;shadow=0;strokeWidth=1;" parent="WIyWlLk6GJQsqaUBKTNV-1" vertex="1">
          <mxGeometry x="1351" y="909" width="199" height="201" as="geometry">
            <mxRectangle x="550" y="140" width="160" height="26" as="alternateBounds" />
          </mxGeometry>
        </mxCell>
        <mxCell id="lJ6aVyWYcNpA8rli7bff-44" value="- hallName : String&#xa;- currentLecture : Lecture&#xa;" style="text;align=left;verticalAlign=top;spacingLeft=4;spacingRight=4;overflow=hidden;rotatable=0;points=[[0,0.5],[1,0.5]];portConstraint=eastwest;" parent="lJ6aVyWYcNpA8rli7bff-43" vertex="1">
          <mxGeometry y="26" width="199" height="46" as="geometry" />
        </mxCell>
        <mxCell id="lJ6aVyWYcNpA8rli7bff-46" value="" style="line;html=1;strokeWidth=1;align=left;verticalAlign=middle;spacingTop=-1;spacingLeft=3;spacingRight=3;rotatable=0;labelPosition=right;points=[];portConstraint=eastwest;" parent="lJ6aVyWYcNpA8rli7bff-43" vertex="1">
          <mxGeometry y="72" width="199" height="8" as="geometry" />
        </mxCell>
        <mxCell id="lJ6aVyWYcNpA8rli7bff-47" value="+ LectureHall()&#xa;+ getHallName() : String&#xa;+ getLecture() : Lecture&#xa;+ setLecture(l : lecture) : void&#xa;+ endLecture() : void&#xa;+ handleCollide(s : Student) : void&#xa;+ toString() : String" style="text;align=left;verticalAlign=top;spacingLeft=4;spacingRight=4;overflow=hidden;rotatable=0;points=[[0,0.5],[1,0.5]];portConstraint=eastwest;" parent="lJ6aVyWYcNpA8rli7bff-43" vertex="1">
          <mxGeometry y="80" width="199" height="121" as="geometry" />
        </mxCell>
        <mxCell id="lJ6aVyWYcNpA8rli7bff-48" value="Restroom&#xa;" style="swimlane;fontStyle=0;align=center;verticalAlign=top;childLayout=stackLayout;horizontal=1;startSize=26;horizontalStack=0;resizeParent=1;resizeLast=0;collapsible=1;marginBottom=0;rounded=0;shadow=0;strokeWidth=1;" parent="WIyWlLk6GJQsqaUBKTNV-1" vertex="1">
          <mxGeometry x="862" y="912" width="192" height="76" as="geometry">
            <mxRectangle x="550" y="140" width="160" height="26" as="alternateBounds" />
          </mxGeometry>
        </mxCell>
        <mxCell id="lJ6aVyWYcNpA8rli7bff-52" value="+ Restroom()&#xa;+ handleCollide(s : String) : void&#xa;" style="text;align=left;verticalAlign=top;spacingLeft=4;spacingRight=4;overflow=hidden;rotatable=0;points=[[0,0.5],[1,0.5]];portConstraint=eastwest;" parent="lJ6aVyWYcNpA8rli7bff-48" vertex="1">
          <mxGeometry y="26" width="192" height="49" as="geometry" />
        </mxCell>
        <mxCell id="lJ6aVyWYcNpA8rli7bff-53" value="" style="endArrow=open;html=1;rounded=0;endFill=0;exitX=1.005;exitY=0.98;exitDx=0;exitDy=0;exitPerimeter=0;entryX=-0.006;entryY=0.921;entryDx=0;entryDy=0;entryPerimeter=0;" parent="WIyWlLk6GJQsqaUBKTNV-1" source="lJ6aVyWYcNpA8rli7bff-13" target="zkfFHV4jXpPFQw0GAbJ--7" edge="1">
          <mxGeometry width="50" height="50" relative="1" as="geometry">
            <mxPoint x="1063" y="525" as="sourcePoint" />
            <mxPoint x="1117" y="434" as="targetPoint" />
            <Array as="points" />
          </mxGeometry>
        </mxCell>
        <mxCell id="lJ6aVyWYcNpA8rli7bff-54" value="" style="endArrow=block;html=1;rounded=0;endFill=0;" parent="WIyWlLk6GJQsqaUBKTNV-1" edge="1">
          <mxGeometry width="50" height="50" relative="1" as="geometry">
            <mxPoint x="1203" y="639" as="sourcePoint" />
            <mxPoint x="1203" y="564" as="targetPoint" />
          </mxGeometry>
        </mxCell>
        <mxCell id="lJ6aVyWYcNpA8rli7bff-55" value="" style="endArrow=block;html=1;rounded=0;exitX=0.5;exitY=0;exitDx=0;exitDy=0;entryX=0.5;entryY=1;entryDx=0;entryDy=0;endFill=0;" parent="WIyWlLk6GJQsqaUBKTNV-1" source="lJ6aVyWYcNpA8rli7bff-37" target="lJ6aVyWYcNpA8rli7bff-25" edge="1">
          <mxGeometry width="50" height="50" relative="1" as="geometry">
            <mxPoint x="1154.7439999999997" y="771.9979999999998" as="sourcePoint" />
            <mxPoint x="1007" y="837.03" as="targetPoint" />
          </mxGeometry>
        </mxCell>
        <mxCell id="lJ6aVyWYcNpA8rli7bff-56" value="" style="endArrow=block;html=1;rounded=0;exitX=0.5;exitY=0;exitDx=0;exitDy=0;endFill=0;entryX=0.75;entryY=1;entryDx=0;entryDy=0;" parent="WIyWlLk6GJQsqaUBKTNV-1" source="lJ6aVyWYcNpA8rli7bff-43" target="lJ6aVyWYcNpA8rli7bff-25" edge="1">
          <mxGeometry width="50" height="50" relative="1" as="geometry">
            <mxPoint x="906.74" y="949" as="sourcePoint" />
            <mxPoint x="1069.74" y="900" as="targetPoint" />
          </mxGeometry>
        </mxCell>
        <mxCell id="lJ6aVyWYcNpA8rli7bff-57" value="" style="endArrow=block;html=1;rounded=0;endFill=0;exitX=0.5;exitY=0;exitDx=0;exitDy=0;entryX=0.25;entryY=1;entryDx=0;entryDy=0;" parent="WIyWlLk6GJQsqaUBKTNV-1" source="lJ6aVyWYcNpA8rli7bff-48" target="lJ6aVyWYcNpA8rli7bff-25" edge="1">
          <mxGeometry width="50" height="50" relative="1" as="geometry">
            <mxPoint x="992" y="1176" as="sourcePoint" />
            <mxPoint x="977" y="936" as="targetPoint" />
          </mxGeometry>
        </mxCell>
        <mxCell id="lJ6aVyWYcNpA8rli7bff-58" value="" style="endArrow=block;html=1;rounded=0;endFill=0;exitX=0.008;exitY=0.117;exitDx=0;exitDy=0;exitPerimeter=0;entryX=1.008;entryY=0.81;entryDx=0;entryDy=0;entryPerimeter=0;" parent="WIyWlLk6GJQsqaUBKTNV-1" source="iKvbDmAeb83sAeLD34LN-12" target="lJ6aVyWYcNpA8rli7bff-35" edge="1">
          <mxGeometry width="50" height="50" relative="1" as="geometry">
            <mxPoint x="2316" y="512" as="sourcePoint" />
            <mxPoint x="2439" y="534" as="targetPoint" />
          </mxGeometry>
        </mxCell>
        <mxCell id="lJ6aVyWYcNpA8rli7bff-59" value="" style="endArrow=block;html=1;rounded=0;entryX=1;entryY=0.5;entryDx=0;entryDy=0;endFill=0;exitX=-0.001;exitY=0.787;exitDx=0;exitDy=0;exitPerimeter=0;" parent="WIyWlLk6GJQsqaUBKTNV-1" source="zkfFHV4jXpPFQw0GAbJ--18" target="lJ6aVyWYcNpA8rli7bff-20" edge="1">
          <mxGeometry width="50" height="50" relative="1" as="geometry">
            <mxPoint x="1172" y="156" as="sourcePoint" />
            <mxPoint x="1419" y="494" as="targetPoint" />
          </mxGeometry>
        </mxCell>
        <mxCell id="lJ6aVyWYcNpA8rli7bff-60" value="StudentAngry&#xa;" style="swimlane;fontStyle=0;align=center;verticalAlign=top;childLayout=stackLayout;horizontal=1;startSize=26;horizontalStack=0;resizeParent=1;resizeLast=0;collapsible=1;marginBottom=0;rounded=0;shadow=0;strokeWidth=1;" parent="WIyWlLk6GJQsqaUBKTNV-1" vertex="1">
          <mxGeometry x="2090" y="284" width="128" height="69" as="geometry">
            <mxRectangle x="550" y="140" width="160" height="26" as="alternateBounds" />
          </mxGeometry>
        </mxCell>
        <mxCell id="lJ6aVyWYcNpA8rli7bff-64" value="+ StudentAngry()" style="text;align=left;verticalAlign=top;spacingLeft=4;spacingRight=4;overflow=hidden;rotatable=0;points=[[0,0.5],[1,0.5]];portConstraint=eastwest;" parent="lJ6aVyWYcNpA8rli7bff-60" vertex="1">
          <mxGeometry y="26" width="128" height="26" as="geometry" />
        </mxCell>
        <mxCell id="lJ6aVyWYcNpA8rli7bff-66" value="StudentBiking&#xa;" style="swimlane;fontStyle=0;align=center;verticalAlign=top;childLayout=stackLayout;horizontal=1;startSize=20;horizontalStack=0;resizeParent=1;resizeLast=0;collapsible=1;marginBottom=0;rounded=0;shadow=0;strokeWidth=1;" parent="WIyWlLk6GJQsqaUBKTNV-1" vertex="1">
          <mxGeometry x="2093" y="462" width="128" height="53" as="geometry">
            <mxRectangle x="550" y="140" width="160" height="26" as="alternateBounds" />
          </mxGeometry>
        </mxCell>
        <mxCell id="lJ6aVyWYcNpA8rli7bff-70" value="+ StudentBiking()" style="text;align=left;verticalAlign=top;spacingLeft=4;spacingRight=4;overflow=hidden;rotatable=0;points=[[0,0.5],[1,0.5]];portConstraint=eastwest;" parent="lJ6aVyWYcNpA8rli7bff-66" vertex="1">
          <mxGeometry y="20" width="128" height="26" as="geometry" />
        </mxCell>
        <mxCell id="lJ6aVyWYcNpA8rli7bff-72" value="StudentPlayer" style="swimlane;fontStyle=0;align=center;verticalAlign=top;childLayout=stackLayout;horizontal=1;startSize=26;horizontalStack=0;resizeParent=1;resizeLast=0;collapsible=1;marginBottom=0;rounded=0;shadow=0;strokeWidth=1;" parent="WIyWlLk6GJQsqaUBKTNV-1" vertex="1">
          <mxGeometry x="1649" y="834.5" width="128" height="120" as="geometry">
            <mxRectangle x="550" y="140" width="160" height="26" as="alternateBounds" />
          </mxGeometry>
        </mxCell>
        <mxCell id="lJ6aVyWYcNpA8rli7bff-76" value="+ startMoving() : void&#xa;+ stopMoving() : void&#xa;+ turnLeft() : void&#xa;+ turnRight() : void&#xa;+ toString() : String&#xa;" style="text;align=left;verticalAlign=top;spacingLeft=4;spacingRight=4;overflow=hidden;rotatable=0;points=[[0,0.5],[1,0.5]];portConstraint=eastwest;" parent="lJ6aVyWYcNpA8rli7bff-72" vertex="1">
          <mxGeometry y="26" width="128" height="91" as="geometry" />
        </mxCell>
        <mxCell id="lJ6aVyWYcNpA8rli7bff-78" value="Student Confused&#xa;" style="swimlane;fontStyle=0;align=center;verticalAlign=top;childLayout=stackLayout;horizontal=1;startSize=24;horizontalStack=0;resizeParent=1;resizeLast=0;collapsible=1;marginBottom=0;rounded=0;shadow=0;strokeWidth=1;" parent="WIyWlLk6GJQsqaUBKTNV-1" vertex="1">
          <mxGeometry x="2097" y="547" width="128" height="65" as="geometry">
            <mxRectangle x="550" y="140" width="160" height="26" as="alternateBounds" />
          </mxGeometry>
        </mxCell>
        <mxCell id="lJ6aVyWYcNpA8rli7bff-82" value="+ move() : void" style="text;align=left;verticalAlign=top;spacingLeft=4;spacingRight=4;overflow=hidden;rotatable=0;points=[[0,0.5],[1,0.5]];portConstraint=eastwest;" parent="lJ6aVyWYcNpA8rli7bff-78" vertex="1">
          <mxGeometry y="24" width="128" height="26" as="geometry" />
        </mxCell>
        <mxCell id="lJ6aVyWYcNpA8rli7bff-84" value="StudentHappy&#xa;" style="swimlane;fontStyle=0;align=center;verticalAlign=top;childLayout=stackLayout;horizontal=1;startSize=26;horizontalStack=0;resizeParent=1;resizeLast=0;collapsible=1;marginBottom=0;rounded=0;shadow=0;strokeWidth=1;" parent="WIyWlLk6GJQsqaUBKTNV-1" vertex="1">
          <mxGeometry x="2093" y="374" width="128" height="66" as="geometry">
            <mxRectangle x="550" y="140" width="160" height="26" as="alternateBounds" />
          </mxGeometry>
        </mxCell>
        <mxCell id="lJ6aVyWYcNpA8rli7bff-88" value="+ move() : void" style="text;align=left;verticalAlign=top;spacingLeft=4;spacingRight=4;overflow=hidden;rotatable=0;points=[[0,0.5],[1,0.5]];portConstraint=eastwest;" parent="lJ6aVyWYcNpA8rli7bff-84" vertex="1">
          <mxGeometry y="26" width="128" height="26" as="geometry" />
        </mxCell>
        <mxCell id="lJ6aVyWYcNpA8rli7bff-90" value="StudentFriendly&#xa;" style="swimlane;fontStyle=0;align=center;verticalAlign=top;childLayout=stackLayout;horizontal=1;startSize=26;horizontalStack=0;resizeParent=1;resizeLast=0;collapsible=1;marginBottom=0;rounded=0;shadow=0;strokeWidth=1;" parent="WIyWlLk6GJQsqaUBKTNV-1" vertex="1">
          <mxGeometry x="1983" y="831" width="128" height="68" as="geometry">
            <mxRectangle x="550" y="140" width="160" height="26" as="alternateBounds" />
          </mxGeometry>
        </mxCell>
        <mxCell id="lJ6aVyWYcNpA8rli7bff-94" value="+ StudentFriendly()" style="text;align=left;verticalAlign=top;spacingLeft=4;spacingRight=4;overflow=hidden;rotatable=0;points=[[0,0.5],[1,0.5]];portConstraint=eastwest;" parent="lJ6aVyWYcNpA8rli7bff-90" vertex="1">
          <mxGeometry y="26" width="128" height="39" as="geometry" />
        </mxCell>
        <mxCell id="lJ6aVyWYcNpA8rli7bff-96" value="" style="endArrow=block;html=1;rounded=0;exitX=0.5;exitY=0;exitDx=0;exitDy=0;entryX=0.01;entryY=0.996;entryDx=0;entryDy=0;endFill=0;entryPerimeter=0;" parent="WIyWlLk6GJQsqaUBKTNV-1" source="lJ6aVyWYcNpA8rli7bff-72" target="lJ6aVyWYcNpA8rli7bff-35" edge="1">
          <mxGeometry width="50" height="50" relative="1" as="geometry">
            <mxPoint x="1635.256" y="522.414" as="sourcePoint" />
            <mxPoint x="1900" y="570" as="targetPoint" />
          </mxGeometry>
        </mxCell>
        <mxCell id="lJ6aVyWYcNpA8rli7bff-97" value="" style="endArrow=block;html=1;rounded=0;exitX=-0.008;exitY=0.105;exitDx=0;exitDy=0;exitPerimeter=0;entryX=1;entryY=0.5;entryDx=0;entryDy=0;endFill=0;" parent="WIyWlLk6GJQsqaUBKTNV-1" source="lJ6aVyWYcNpA8rli7bff-64" target="lJ6aVyWYcNpA8rli7bff-32" edge="1">
          <mxGeometry width="50" height="50" relative="1" as="geometry">
            <mxPoint x="1900" y="570" as="sourcePoint" />
            <mxPoint x="1950" y="520" as="targetPoint" />
          </mxGeometry>
        </mxCell>
        <mxCell id="lJ6aVyWYcNpA8rli7bff-98" value="" style="endArrow=block;html=1;rounded=0;exitX=-0.016;exitY=0.109;exitDx=0;exitDy=0;exitPerimeter=0;entryX=1;entryY=0.5;entryDx=0;entryDy=0;endFill=0;" parent="WIyWlLk6GJQsqaUBKTNV-1" source="lJ6aVyWYcNpA8rli7bff-70" target="lJ6aVyWYcNpA8rli7bff-31" edge="1">
          <mxGeometry width="50" height="50" relative="1" as="geometry">
            <mxPoint x="2037.976" y="555.5599999999997" as="sourcePoint" />
            <mxPoint x="1996" y="557" as="targetPoint" />
          </mxGeometry>
        </mxCell>
        <mxCell id="iKvbDmAeb83sAeLD34LN-21" value="" style="rounded=0;orthogonalLoop=1;jettySize=auto;html=1;entryX=0.484;entryY=0.999;entryDx=0;entryDy=0;entryPerimeter=0;endArrow=block;endFill=0;" parent="WIyWlLk6GJQsqaUBKTNV-1" source="iKvbDmAeb83sAeLD34LN-4" target="lJ6aVyWYcNpA8rli7bff-35" edge="1">
          <mxGeometry relative="1" as="geometry">
            <mxPoint x="1865" y="774" as="targetPoint" />
          </mxGeometry>
        </mxCell>
        <mxCell id="iKvbDmAeb83sAeLD34LN-4" value="StudentCar" style="swimlane;fontStyle=0;align=center;verticalAlign=top;childLayout=stackLayout;horizontal=1;startSize=26;horizontalStack=0;resizeParent=1;resizeLast=0;collapsible=1;marginBottom=0;rounded=0;shadow=0;strokeWidth=1;" parent="WIyWlLk6GJQsqaUBKTNV-1" vertex="1">
          <mxGeometry x="1815" y="841" width="128" height="71" as="geometry">
            <mxRectangle x="550" y="140" width="160" height="26" as="alternateBounds" />
          </mxGeometry>
        </mxCell>
        <mxCell id="iKvbDmAeb83sAeLD34LN-7" value="+ StudentCar()" style="text;align=left;verticalAlign=top;spacingLeft=4;spacingRight=4;overflow=hidden;rotatable=0;points=[[0,0.5],[1,0.5]];portConstraint=eastwest;" parent="iKvbDmAeb83sAeLD34LN-4" vertex="1">
          <mxGeometry y="26" width="128" height="26" as="geometry" />
        </mxCell>
        <mxCell id="iKvbDmAeb83sAeLD34LN-9" value="StudentNonstop" style="swimlane;fontStyle=0;align=center;verticalAlign=top;childLayout=stackLayout;horizontal=1;startSize=26;horizontalStack=0;resizeParent=1;resizeLast=0;collapsible=1;marginBottom=0;rounded=0;shadow=0;strokeWidth=1;" parent="WIyWlLk6GJQsqaUBKTNV-1" vertex="1">
          <mxGeometry x="2099" y="655" width="195" height="85" as="geometry">
            <mxRectangle x="550" y="140" width="160" height="26" as="alternateBounds" />
          </mxGeometry>
        </mxCell>
        <mxCell id="iKvbDmAeb83sAeLD34LN-12" value="+ StudentNonstop() &#xa;+ handleCollide(s : Student) : void&#xa;" style="text;align=left;verticalAlign=top;spacingLeft=4;spacingRight=4;overflow=hidden;rotatable=0;points=[[0,0.5],[1,0.5]];portConstraint=eastwest;" parent="iKvbDmAeb83sAeLD34LN-9" vertex="1">
          <mxGeometry y="26" width="195" height="44" as="geometry" />
        </mxCell>
        <mxCell id="iKvbDmAeb83sAeLD34LN-13" value="StudentRunning" style="swimlane;fontStyle=0;align=center;verticalAlign=top;childLayout=stackLayout;horizontal=1;startSize=26;horizontalStack=0;resizeParent=1;resizeLast=0;collapsible=1;marginBottom=0;rounded=0;shadow=0;strokeWidth=1;" parent="WIyWlLk6GJQsqaUBKTNV-1" vertex="1">
          <mxGeometry x="2047" y="142" width="128" height="67" as="geometry">
            <mxRectangle x="550" y="140" width="160" height="26" as="alternateBounds" />
          </mxGeometry>
        </mxCell>
        <mxCell id="iKvbDmAeb83sAeLD34LN-16" value="+ StudentRunning()" style="text;align=left;verticalAlign=top;spacingLeft=4;spacingRight=4;overflow=hidden;rotatable=0;points=[[0,0.5],[1,0.5]];portConstraint=eastwest;" parent="iKvbDmAeb83sAeLD34LN-13" vertex="1">
          <mxGeometry y="26" width="128" height="26" as="geometry" />
        </mxCell>
        <mxCell id="iKvbDmAeb83sAeLD34LN-22" value="" style="endArrow=block;html=1;rounded=0;exitX=0.5;exitY=0;exitDx=0;exitDy=0;entryX=0.992;entryY=1.008;entryDx=0;entryDy=0;entryPerimeter=0;endFill=0;" parent="WIyWlLk6GJQsqaUBKTNV-1" source="lJ6aVyWYcNpA8rli7bff-90" target="lJ6aVyWYcNpA8rli7bff-35" edge="1">
          <mxGeometry width="50" height="50" relative="1" as="geometry">
            <mxPoint x="2053" y="776" as="sourcePoint" />
            <mxPoint x="2103" y="726" as="targetPoint" />
          </mxGeometry>
        </mxCell>
        <mxCell id="iKvbDmAeb83sAeLD34LN-23" value="" style="endArrow=block;html=1;rounded=0;exitX=0;exitY=0.5;exitDx=0;exitDy=0;entryX=1.023;entryY=0.533;entryDx=0;entryDy=0;entryPerimeter=0;endFill=0;" parent="WIyWlLk6GJQsqaUBKTNV-1" source="lJ6aVyWYcNpA8rli7bff-82" target="lJ6aVyWYcNpA8rli7bff-35" edge="1">
          <mxGeometry width="50" height="50" relative="1" as="geometry">
            <mxPoint x="2008" y="560" as="sourcePoint" />
            <mxPoint x="2058" y="510" as="targetPoint" />
          </mxGeometry>
        </mxCell>
        <mxCell id="iKvbDmAeb83sAeLD34LN-24" value="" style="endArrow=block;html=1;rounded=0;exitX=0;exitY=0.5;exitDx=0;exitDy=0;entryX=1.012;entryY=0.947;entryDx=0;entryDy=0;entryPerimeter=0;endFill=0;" parent="WIyWlLk6GJQsqaUBKTNV-1" source="lJ6aVyWYcNpA8rli7bff-88" target="lJ6aVyWYcNpA8rli7bff-32" edge="1">
          <mxGeometry width="50" height="50" relative="1" as="geometry">
            <mxPoint x="2028" y="428" as="sourcePoint" />
            <mxPoint x="2078" y="378" as="targetPoint" />
          </mxGeometry>
        </mxCell>
        <mxCell id="iKvbDmAeb83sAeLD34LN-25" value="" style="endArrow=block;html=1;rounded=0;exitX=0.25;exitY=1;exitDx=0;exitDy=0;entryX=0.996;entryY=0.036;entryDx=0;entryDy=0;entryPerimeter=0;endFill=0;" parent="WIyWlLk6GJQsqaUBKTNV-1" source="iKvbDmAeb83sAeLD34LN-13" target="lJ6aVyWYcNpA8rli7bff-32" edge="1">
          <mxGeometry width="50" height="50" relative="1" as="geometry">
            <mxPoint x="1969" y="230" as="sourcePoint" />
            <mxPoint x="2019" y="180" as="targetPoint" />
          </mxGeometry>
        </mxCell>
        <mxCell id="iKvbDmAeb83sAeLD34LN-26" value="" style="endArrow=classic;html=1;rounded=0;exitX=0.5;exitY=1;exitDx=0;exitDy=0;entryX=0.681;entryY=0;entryDx=0;entryDy=0;entryPerimeter=0;" parent="WIyWlLk6GJQsqaUBKTNV-1" source="lJ6aVyWYcNpA8rli7bff-1" target="lJ6aVyWYcNpA8rli7bff-12" edge="1">
          <mxGeometry width="50" height="50" relative="1" as="geometry">
            <mxPoint x="993" y="269" as="sourcePoint" />
            <mxPoint x="1043" y="219" as="targetPoint" />
          </mxGeometry>
        </mxCell>
        <mxCell id="iKvbDmAeb83sAeLD34LN-27" value="" style="endArrow=block;html=1;rounded=0;exitX=-0.019;exitY=0.13;exitDx=0;exitDy=0;exitPerimeter=0;entryX=1.013;entryY=0.162;entryDx=0;entryDy=0;entryPerimeter=0;endFill=0;" parent="WIyWlLk6GJQsqaUBKTNV-1" source="lJ6aVyWYcNpA8rli7bff-35" target="iKvbDmAeb83sAeLD34LN-2" edge="1">
          <mxGeometry width="50" height="50" relative="1" as="geometry">
            <mxPoint x="1412" y="472" as="sourcePoint" />
            <mxPoint x="1462" y="422" as="targetPoint" />
          </mxGeometry>
        </mxCell>
        <mxCell id="n7YNToGmn0SKQ2T-LouQ-9" style="edgeStyle=orthogonalEdgeStyle;rounded=0;orthogonalLoop=1;jettySize=auto;html=1;" edge="1" parent="WIyWlLk6GJQsqaUBKTNV-1" source="tezg1rnQrvvXJYbCxil3-8" target="zkfFHV4jXpPFQw0GAbJ--7">
          <mxGeometry relative="1" as="geometry" />
        </mxCell>
        <mxCell id="tezg1rnQrvvXJYbCxil3-8" value="GameObjectCollection" style="swimlane;fontStyle=0;align=center;verticalAlign=top;childLayout=stackLayout;horizontal=1;startSize=26;horizontalStack=0;resizeParent=1;resizeLast=0;collapsible=1;marginBottom=0;rounded=0;shadow=0;strokeWidth=1;" parent="WIyWlLk6GJQsqaUBKTNV-1" vertex="1">
          <mxGeometry x="1336" y="261" width="200" height="159" as="geometry">
            <mxRectangle x="550" y="140" width="160" height="26" as="alternateBounds" />
          </mxGeometry>
        </mxCell>
        <mxCell id="tezg1rnQrvvXJYbCxil3-9" value="- theCollection : Vector" style="text;align=left;verticalAlign=top;spacingLeft=4;spacingRight=4;overflow=hidden;rotatable=0;points=[[0,0.5],[1,0.5]];portConstraint=eastwest;" parent="tezg1rnQrvvXJYbCxil3-8" vertex="1">
          <mxGeometry y="26" width="200" height="43" as="geometry" />
        </mxCell>
        <mxCell id="tezg1rnQrvvXJYbCxil3-10" value="" style="line;html=1;strokeWidth=1;align=left;verticalAlign=middle;spacingTop=-1;spacingLeft=3;spacingRight=3;rotatable=0;labelPosition=right;points=[];portConstraint=eastwest;" parent="tezg1rnQrvvXJYbCxil3-8" vertex="1">
          <mxGeometry y="69" width="200" height="8" as="geometry" />
        </mxCell>
        <mxCell id="tezg1rnQrvvXJYbCxil3-11" value="+ add(newObject : GameObject)&#xa;+ getIterator() : IIterator&#xa;&#xa;+ Class: GameVectorIterator" style="text;align=left;verticalAlign=top;spacingLeft=4;spacingRight=4;overflow=hidden;rotatable=0;points=[[0,0.5],[1,0.5]];portConstraint=eastwest;" parent="tezg1rnQrvvXJYbCxil3-8" vertex="1">
          <mxGeometry y="77" width="200" height="70" as="geometry" />
        </mxCell>
        <mxCell id="tezg1rnQrvvXJYbCxil3-12" value="HorizontalStrategy" style="swimlane;fontStyle=0;align=center;verticalAlign=top;childLayout=stackLayout;horizontal=1;startSize=26;horizontalStack=0;resizeParent=1;resizeLast=0;collapsible=1;marginBottom=0;rounded=0;shadow=0;strokeWidth=1;" parent="WIyWlLk6GJQsqaUBKTNV-1" vertex="1">
          <mxGeometry x="1401" y="604" width="161" height="65" as="geometry">
            <mxRectangle x="550" y="140" width="160" height="26" as="alternateBounds" />
          </mxGeometry>
        </mxCell>
        <mxCell id="tezg1rnQrvvXJYbCxil3-15" value="+ apply() : void" style="text;align=left;verticalAlign=top;spacingLeft=4;spacingRight=4;overflow=hidden;rotatable=0;points=[[0,0.5],[1,0.5]];portConstraint=eastwest;" parent="tezg1rnQrvvXJYbCxil3-12" vertex="1">
          <mxGeometry y="26" width="161" height="34" as="geometry" />
        </mxCell>
        <mxCell id="tezg1rnQrvvXJYbCxil3-20" value="VerticalStrategy" style="swimlane;fontStyle=0;align=center;verticalAlign=top;childLayout=stackLayout;horizontal=1;startSize=26;horizontalStack=0;resizeParent=1;resizeLast=0;collapsible=1;marginBottom=0;rounded=0;shadow=0;strokeWidth=1;" parent="WIyWlLk6GJQsqaUBKTNV-1" vertex="1">
          <mxGeometry x="1401" y="513" width="158" height="65" as="geometry">
            <mxRectangle x="550" y="140" width="160" height="26" as="alternateBounds" />
          </mxGeometry>
        </mxCell>
        <mxCell id="tezg1rnQrvvXJYbCxil3-21" value="+ apply() : void" style="text;align=left;verticalAlign=top;spacingLeft=4;spacingRight=4;overflow=hidden;rotatable=0;points=[[0,0.5],[1,0.5]];portConstraint=eastwest;" parent="tezg1rnQrvvXJYbCxil3-20" vertex="1">
          <mxGeometry y="26" width="158" height="34" as="geometry" />
        </mxCell>
        <mxCell id="tezg1rnQrvvXJYbCxil3-22" value="RandomStrategy" style="swimlane;fontStyle=0;align=center;verticalAlign=top;childLayout=stackLayout;horizontal=1;startSize=26;horizontalStack=0;resizeParent=1;resizeLast=0;collapsible=1;marginBottom=0;rounded=0;shadow=0;strokeWidth=1;" parent="WIyWlLk6GJQsqaUBKTNV-1" vertex="1">
          <mxGeometry x="1415" y="703" width="161" height="65" as="geometry">
            <mxRectangle x="550" y="140" width="160" height="26" as="alternateBounds" />
          </mxGeometry>
        </mxCell>
        <mxCell id="n7YNToGmn0SKQ2T-LouQ-7" style="edgeStyle=orthogonalEdgeStyle;rounded=0;orthogonalLoop=1;jettySize=auto;html=1;exitX=1;exitY=0.5;exitDx=0;exitDy=0;" edge="1" parent="tezg1rnQrvvXJYbCxil3-22" source="tezg1rnQrvvXJYbCxil3-23">
          <mxGeometry relative="1" as="geometry">
            <mxPoint x="221" y="-55" as="targetPoint" />
          </mxGeometry>
        </mxCell>
        <mxCell id="tezg1rnQrvvXJYbCxil3-23" value="+ apply() : void" style="text;align=left;verticalAlign=top;spacingLeft=4;spacingRight=4;overflow=hidden;rotatable=0;points=[[0,0.5],[1,0.5]];portConstraint=eastwest;" parent="tezg1rnQrvvXJYbCxil3-22" vertex="1">
          <mxGeometry y="26" width="161" height="34" as="geometry" />
        </mxCell>
        <mxCell id="n7YNToGmn0SKQ2T-LouQ-10" style="edgeStyle=orthogonalEdgeStyle;rounded=0;orthogonalLoop=1;jettySize=auto;html=1;" edge="1" parent="WIyWlLk6GJQsqaUBKTNV-1" source="tezg1rnQrvvXJYbCxil3-24" target="tezg1rnQrvvXJYbCxil3-11">
          <mxGeometry relative="1" as="geometry" />
        </mxCell>
        <mxCell id="tezg1rnQrvvXJYbCxil3-24" value="ICollection" style="swimlane;fontStyle=0;align=center;verticalAlign=top;childLayout=stackLayout;horizontal=1;startSize=26;horizontalStack=0;resizeParent=1;resizeLast=0;collapsible=1;marginBottom=0;rounded=0;shadow=0;strokeWidth=1;" parent="WIyWlLk6GJQsqaUBKTNV-1" vertex="1">
          <mxGeometry x="1567" y="331" width="157" height="84" as="geometry">
            <mxRectangle x="550" y="140" width="160" height="26" as="alternateBounds" />
          </mxGeometry>
        </mxCell>
        <mxCell id="tezg1rnQrvvXJYbCxil3-25" value="+ add( newObject: Object)&#xa;+ getIterator() : IIterator" style="text;align=left;verticalAlign=top;spacingLeft=4;spacingRight=4;overflow=hidden;rotatable=0;points=[[0,0.5],[1,0.5]];portConstraint=eastwest;" parent="tezg1rnQrvvXJYbCxil3-24" vertex="1">
          <mxGeometry y="26" width="157" height="43" as="geometry" />
        </mxCell>
        <mxCell id="tezg1rnQrvvXJYbCxil3-28" value="IIterator" style="swimlane;fontStyle=0;align=center;verticalAlign=top;childLayout=stackLayout;horizontal=1;startSize=26;horizontalStack=0;resizeParent=1;resizeLast=0;collapsible=1;marginBottom=0;rounded=0;shadow=0;strokeWidth=1;" parent="WIyWlLk6GJQsqaUBKTNV-1" vertex="1">
          <mxGeometry x="1591" y="477" width="157" height="84" as="geometry">
            <mxRectangle x="550" y="140" width="160" height="26" as="alternateBounds" />
          </mxGeometry>
        </mxCell>
        <mxCell id="tezg1rnQrvvXJYbCxil3-29" value="+ hasNext() : boolean&#xa;+ getNext() : Object" style="text;align=left;verticalAlign=top;spacingLeft=4;spacingRight=4;overflow=hidden;rotatable=0;points=[[0,0.5],[1,0.5]];portConstraint=eastwest;" parent="tezg1rnQrvvXJYbCxil3-28" vertex="1">
          <mxGeometry y="26" width="157" height="43" as="geometry" />
        </mxCell>
        <mxCell id="tezg1rnQrvvXJYbCxil3-30" value="IStrategy" style="swimlane;fontStyle=0;align=center;verticalAlign=top;childLayout=stackLayout;horizontal=1;startSize=26;horizontalStack=0;resizeParent=1;resizeLast=0;collapsible=1;marginBottom=0;rounded=0;shadow=0;strokeWidth=1;" parent="WIyWlLk6GJQsqaUBKTNV-1" vertex="1">
          <mxGeometry x="1608.5" y="571" width="132" height="69" as="geometry">
            <mxRectangle x="550" y="140" width="160" height="26" as="alternateBounds" />
          </mxGeometry>
        </mxCell>
        <mxCell id="tezg1rnQrvvXJYbCxil3-31" value="+ apply() : void" style="text;align=left;verticalAlign=top;spacingLeft=4;spacingRight=4;overflow=hidden;rotatable=0;points=[[0,0.5],[1,0.5]];portConstraint=eastwest;" parent="tezg1rnQrvvXJYbCxil3-30" vertex="1">
          <mxGeometry y="26" width="132" height="43" as="geometry" />
        </mxCell>
        <mxCell id="n7YNToGmn0SKQ2T-LouQ-5" style="edgeStyle=orthogonalEdgeStyle;rounded=0;orthogonalLoop=1;jettySize=auto;html=1;entryX=0.004;entryY=0.13;entryDx=0;entryDy=0;entryPerimeter=0;" edge="1" parent="WIyWlLk6GJQsqaUBKTNV-1" source="tezg1rnQrvvXJYbCxil3-21" target="tezg1rnQrvvXJYbCxil3-30">
          <mxGeometry relative="1" as="geometry" />
        </mxCell>
        <mxCell id="n7YNToGmn0SKQ2T-LouQ-6" style="edgeStyle=orthogonalEdgeStyle;rounded=0;orthogonalLoop=1;jettySize=auto;html=1;exitX=1;exitY=0.5;exitDx=0;exitDy=0;entryX=0;entryY=0.5;entryDx=0;entryDy=0;" edge="1" parent="WIyWlLk6GJQsqaUBKTNV-1" source="tezg1rnQrvvXJYbCxil3-15" target="tezg1rnQrvvXJYbCxil3-31">
          <mxGeometry relative="1" as="geometry" />
        </mxCell>
        <mxCell id="n7YNToGmn0SKQ2T-LouQ-8" style="edgeStyle=orthogonalEdgeStyle;rounded=0;orthogonalLoop=1;jettySize=auto;html=1;exitX=1;exitY=0.5;exitDx=0;exitDy=0;entryX=0;entryY=0.649;entryDx=0;entryDy=0;entryPerimeter=0;" edge="1" parent="WIyWlLk6GJQsqaUBKTNV-1" source="tezg1rnQrvvXJYbCxil3-31" target="lJ6aVyWYcNpA8rli7bff-35">
          <mxGeometry relative="1" as="geometry" />
        </mxCell>
        <mxCell id="n7YNToGmn0SKQ2T-LouQ-11" style="edgeStyle=orthogonalEdgeStyle;rounded=0;orthogonalLoop=1;jettySize=auto;html=1;entryX=0.933;entryY=-0.028;entryDx=0;entryDy=0;entryPerimeter=0;" edge="1" parent="WIyWlLk6GJQsqaUBKTNV-1" source="n7YNToGmn0SKQ2T-LouQ-12" target="n7YNToGmn0SKQ2T-LouQ-18">
          <mxGeometry relative="1" as="geometry" />
        </mxCell>
        <mxCell id="n7YNToGmn0SKQ2T-LouQ-12" value="ActionCommand" style="swimlane;fontStyle=0;align=center;verticalAlign=top;childLayout=stackLayout;horizontal=1;startSize=26;horizontalStack=0;resizeParent=1;resizeLast=0;collapsible=1;marginBottom=0;rounded=0;shadow=0;strokeWidth=1;" vertex="1" parent="WIyWlLk6GJQsqaUBKTNV-1">
          <mxGeometry x="475" y="108" width="260" height="131" as="geometry">
            <mxRectangle x="550" y="140" width="160" height="26" as="alternateBounds" />
          </mxGeometry>
        </mxCell>
        <mxCell id="n7YNToGmn0SKQ2T-LouQ-13" value="- model: GameModel" style="text;align=left;verticalAlign=top;spacingLeft=4;spacingRight=4;overflow=hidden;rotatable=0;points=[[0,0.5],[1,0.5]];portConstraint=eastwest;" vertex="1" parent="n7YNToGmn0SKQ2T-LouQ-12">
          <mxGeometry y="26" width="260" height="28" as="geometry" />
        </mxCell>
        <mxCell id="n7YNToGmn0SKQ2T-LouQ-14" value="" style="line;html=1;strokeWidth=1;align=left;verticalAlign=middle;spacingTop=-1;spacingLeft=3;spacingRight=3;rotatable=0;labelPosition=right;points=[];portConstraint=eastwest;" vertex="1" parent="n7YNToGmn0SKQ2T-LouQ-12">
          <mxGeometry y="54" width="260" height="8" as="geometry" />
        </mxCell>
        <mxCell id="n7YNToGmn0SKQ2T-LouQ-15" value="+ ActionCommand(s: String) &#xa;+ ActionCommand(s: String, m: GameModel)&#xa;+ actionPerformed( ev: ActionEvent)" style="text;align=left;verticalAlign=top;spacingLeft=4;spacingRight=4;overflow=hidden;rotatable=0;points=[[0,0.5],[1,0.5]];portConstraint=eastwest;" vertex="1" parent="n7YNToGmn0SKQ2T-LouQ-12">
          <mxGeometry y="62" width="260" height="67" as="geometry" />
        </mxCell>
        <mxCell id="n7YNToGmn0SKQ2T-LouQ-16" value="CommandButton" style="swimlane;fontStyle=0;align=center;verticalAlign=top;childLayout=stackLayout;horizontal=1;startSize=26;horizontalStack=0;resizeParent=1;resizeLast=0;collapsible=1;marginBottom=0;rounded=0;shadow=0;strokeWidth=1;" vertex="1" parent="WIyWlLk6GJQsqaUBKTNV-1">
          <mxGeometry x="193" y="128" width="259" height="77" as="geometry">
            <mxRectangle x="550" y="140" width="160" height="26" as="alternateBounds" />
          </mxGeometry>
        </mxCell>
        <mxCell id="n7YNToGmn0SKQ2T-LouQ-17" value="CommandButton(s : String)&#xa;CommandButton(s : String, m : GameModel)" style="text;align=left;verticalAlign=top;spacingLeft=4;spacingRight=4;overflow=hidden;rotatable=0;points=[[0,0.5],[1,0.5]];portConstraint=eastwest;" vertex="1" parent="n7YNToGmn0SKQ2T-LouQ-16">
          <mxGeometry y="26" width="259" height="43" as="geometry" />
        </mxCell>
        <mxCell id="n7YNToGmn0SKQ2T-LouQ-18" value="ViewCommands" style="swimlane;fontStyle=0;align=center;verticalAlign=top;childLayout=stackLayout;horizontal=1;startSize=26;horizontalStack=0;resizeParent=1;resizeLast=0;collapsible=1;marginBottom=0;rounded=0;shadow=0;strokeWidth=1;" vertex="1" parent="WIyWlLk6GJQsqaUBKTNV-1">
          <mxGeometry x="308" y="389" width="239" height="106" as="geometry">
            <mxRectangle x="550" y="140" width="160" height="26" as="alternateBounds" />
          </mxGeometry>
        </mxCell>
        <mxCell id="n7YNToGmn0SKQ2T-LouQ-19" value="+ ViewCommands()&#xa;+ ViewCommands( m : GameModel )&#xa;+ update(o : Observable, arg : Object)" style="text;align=left;verticalAlign=top;spacingLeft=4;spacingRight=4;overflow=hidden;rotatable=0;points=[[0,0.5],[1,0.5]];portConstraint=eastwest;" vertex="1" parent="n7YNToGmn0SKQ2T-LouQ-18">
          <mxGeometry y="26" width="239" height="80" as="geometry" />
        </mxCell>
        <mxCell id="n7YNToGmn0SKQ2T-LouQ-20" value="ViewMap" style="swimlane;fontStyle=0;align=center;verticalAlign=top;childLayout=stackLayout;horizontal=1;startSize=26;horizontalStack=0;resizeParent=1;resizeLast=0;collapsible=1;marginBottom=0;rounded=0;shadow=0;strokeWidth=1;" vertex="1" parent="WIyWlLk6GJQsqaUBKTNV-1">
          <mxGeometry x="310" y="522" width="239" height="106" as="geometry">
            <mxRectangle x="550" y="140" width="160" height="26" as="alternateBounds" />
          </mxGeometry>
        </mxCell>
        <mxCell id="n7YNToGmn0SKQ2T-LouQ-21" value="+ ViewMap()&#xa;+ ViewMap( m : GameModel )&#xa;+ update(o : Observable, arg : Object)" style="text;align=left;verticalAlign=top;spacingLeft=4;spacingRight=4;overflow=hidden;rotatable=0;points=[[0,0.5],[1,0.5]];portConstraint=eastwest;" vertex="1" parent="n7YNToGmn0SKQ2T-LouQ-20">
          <mxGeometry y="26" width="239" height="80" as="geometry" />
        </mxCell>
        <mxCell id="n7YNToGmn0SKQ2T-LouQ-22" value="ViewMenu" style="swimlane;fontStyle=0;align=center;verticalAlign=top;childLayout=stackLayout;horizontal=1;startSize=26;horizontalStack=0;resizeParent=1;resizeLast=0;collapsible=1;marginBottom=0;rounded=0;shadow=0;strokeWidth=1;" vertex="1" parent="WIyWlLk6GJQsqaUBKTNV-1">
          <mxGeometry x="308" y="682" width="239" height="83" as="geometry">
            <mxRectangle x="550" y="140" width="160" height="26" as="alternateBounds" />
          </mxGeometry>
        </mxCell>
        <mxCell id="n7YNToGmn0SKQ2T-LouQ-23" value="+ ViewMenu()&#xa;+ update(o : Observable, arg : Object)" style="text;align=left;verticalAlign=top;spacingLeft=4;spacingRight=4;overflow=hidden;rotatable=0;points=[[0,0.5],[1,0.5]];portConstraint=eastwest;" vertex="1" parent="n7YNToGmn0SKQ2T-LouQ-22">
          <mxGeometry y="26" width="239" height="56" as="geometry" />
        </mxCell>
        <mxCell id="n7YNToGmn0SKQ2T-LouQ-24" value="ViewMessage" style="swimlane;fontStyle=0;align=center;verticalAlign=top;childLayout=stackLayout;horizontal=1;startSize=26;horizontalStack=0;resizeParent=1;resizeLast=0;collapsible=1;marginBottom=0;rounded=0;shadow=0;strokeWidth=1;" vertex="1" parent="WIyWlLk6GJQsqaUBKTNV-1">
          <mxGeometry x="326" y="824.5" width="211" height="118" as="geometry">
            <mxRectangle x="550" y="140" width="160" height="26" as="alternateBounds" />
          </mxGeometry>
        </mxCell>
        <mxCell id="n7YNToGmn0SKQ2T-LouQ-25" value="- msg : Label&#xa;- g : GameModel" style="text;align=left;verticalAlign=top;spacingLeft=4;spacingRight=4;overflow=hidden;rotatable=0;points=[[0,0.5],[1,0.5]];portConstraint=eastwest;" vertex="1" parent="n7YNToGmn0SKQ2T-LouQ-24">
          <mxGeometry y="26" width="211" height="43" as="geometry" />
        </mxCell>
        <mxCell id="n7YNToGmn0SKQ2T-LouQ-26" value="" style="line;html=1;strokeWidth=1;align=left;verticalAlign=middle;spacingTop=-1;spacingLeft=3;spacingRight=3;rotatable=0;labelPosition=right;points=[];portConstraint=eastwest;" vertex="1" parent="n7YNToGmn0SKQ2T-LouQ-24">
          <mxGeometry y="69" width="211" height="8" as="geometry" />
        </mxCell>
        <mxCell id="n7YNToGmn0SKQ2T-LouQ-27" value="update( o : Observable, arg: Object)" style="text;align=left;verticalAlign=top;spacingLeft=4;spacingRight=4;overflow=hidden;rotatable=0;points=[[0,0.5],[1,0.5]];portConstraint=eastwest;" vertex="1" parent="n7YNToGmn0SKQ2T-LouQ-24">
          <mxGeometry y="77" width="211" height="41" as="geometry" />
        </mxCell>
        <mxCell id="n7YNToGmn0SKQ2T-LouQ-38" style="edgeStyle=orthogonalEdgeStyle;rounded=0;orthogonalLoop=1;jettySize=auto;html=1;exitX=1;exitY=0;exitDx=0;exitDy=0;entryX=0.25;entryY=1;entryDx=0;entryDy=0;" edge="1" parent="WIyWlLk6GJQsqaUBKTNV-1" source="n7YNToGmn0SKQ2T-LouQ-28" target="lJ6aVyWYcNpA8rli7bff-12">
          <mxGeometry relative="1" as="geometry">
            <Array as="points">
              <mxPoint x="733" y="985" />
              <mxPoint x="733" y="864" />
              <mxPoint x="873" y="864" />
            </Array>
          </mxGeometry>
        </mxCell>
        <mxCell id="n7YNToGmn0SKQ2T-LouQ-28" value="ViewStatus" style="swimlane;fontStyle=0;align=center;verticalAlign=top;childLayout=stackLayout;horizontal=1;startSize=26;horizontalStack=0;resizeParent=1;resizeLast=0;collapsible=1;marginBottom=0;rounded=0;shadow=0;strokeWidth=1;" vertex="1" parent="WIyWlLk6GJQsqaUBKTNV-1">
          <mxGeometry x="475" y="985" width="228" height="362" as="geometry">
            <mxRectangle x="550" y="140" width="160" height="26" as="alternateBounds" />
          </mxGeometry>
        </mxCell>
        <mxCell id="n7YNToGmn0SKQ2T-LouQ-29" value="- g : GameModel&#xa;- s : Student&#xa;- LectureHallNameHeader : Label&#xa;- lectureHallName : Label&#xa;- lectureTimeRemainingHeader : Label&#xa;- LectureTimeRemaining : Label&#xa;- currentGameTimeHeader: Label&#xa;- currentGameTime: Label&#xa;- playerAbsencesHeader: Label&#xa;- playerAbsences : Label" style="text;align=left;verticalAlign=top;spacingLeft=4;spacingRight=4;overflow=hidden;rotatable=0;points=[[0,0.5],[1,0.5]];portConstraint=eastwest;" vertex="1" parent="n7YNToGmn0SKQ2T-LouQ-28">
          <mxGeometry y="26" width="228" height="160" as="geometry" />
        </mxCell>
        <mxCell id="n7YNToGmn0SKQ2T-LouQ-30" value="" style="line;html=1;strokeWidth=1;align=left;verticalAlign=middle;spacingTop=-1;spacingLeft=3;spacingRight=3;rotatable=0;labelPosition=right;points=[];portConstraint=eastwest;" vertex="1" parent="n7YNToGmn0SKQ2T-LouQ-28">
          <mxGeometry y="186" width="228" height="8" as="geometry" />
        </mxCell>
        <mxCell id="n7YNToGmn0SKQ2T-LouQ-31" value="+ LectureHall()&#xa;+ getHallName() : String&#xa;+ getLecture() : Lecture&#xa;+ setLecture(l : lecture) : void&#xa;+ endLecture() : void&#xa;+ handleCollide(s : Student) : void&#xa;+ toString() : String" style="text;align=left;verticalAlign=top;spacingLeft=4;spacingRight=4;overflow=hidden;rotatable=0;points=[[0,0.5],[1,0.5]];portConstraint=eastwest;" vertex="1" parent="n7YNToGmn0SKQ2T-LouQ-28">
          <mxGeometry y="194" width="228" height="137" as="geometry" />
        </mxCell>
        <mxCell id="n7YNToGmn0SKQ2T-LouQ-32" style="edgeStyle=orthogonalEdgeStyle;rounded=0;orthogonalLoop=1;jettySize=auto;html=1;entryX=0.611;entryY=0.009;entryDx=0;entryDy=0;entryPerimeter=0;exitX=0.5;exitY=1;exitDx=0;exitDy=0;" edge="1" parent="WIyWlLk6GJQsqaUBKTNV-1" source="n7YNToGmn0SKQ2T-LouQ-16" target="n7YNToGmn0SKQ2T-LouQ-18">
          <mxGeometry relative="1" as="geometry" />
        </mxCell>
        <mxCell id="n7YNToGmn0SKQ2T-LouQ-34" style="edgeStyle=orthogonalEdgeStyle;rounded=0;orthogonalLoop=1;jettySize=auto;html=1;entryX=0;entryY=0.712;entryDx=0;entryDy=0;entryPerimeter=0;" edge="1" parent="WIyWlLk6GJQsqaUBKTNV-1" source="n7YNToGmn0SKQ2T-LouQ-19" target="lJ6aVyWYcNpA8rli7bff-13">
          <mxGeometry relative="1" as="geometry" />
        </mxCell>
        <mxCell id="n7YNToGmn0SKQ2T-LouQ-35" style="edgeStyle=orthogonalEdgeStyle;rounded=0;orthogonalLoop=1;jettySize=auto;html=1;entryX=-0.015;entryY=0.403;entryDx=0;entryDy=0;entryPerimeter=0;" edge="1" parent="WIyWlLk6GJQsqaUBKTNV-1" source="n7YNToGmn0SKQ2T-LouQ-21" target="lJ6aVyWYcNpA8rli7bff-16">
          <mxGeometry relative="1" as="geometry" />
        </mxCell>
        <mxCell id="n7YNToGmn0SKQ2T-LouQ-36" style="edgeStyle=orthogonalEdgeStyle;rounded=0;orthogonalLoop=1;jettySize=auto;html=1;entryX=-0.015;entryY=0.836;entryDx=0;entryDy=0;entryPerimeter=0;" edge="1" parent="WIyWlLk6GJQsqaUBKTNV-1" source="n7YNToGmn0SKQ2T-LouQ-23" target="lJ6aVyWYcNpA8rli7bff-16">
          <mxGeometry relative="1" as="geometry" />
        </mxCell>
        <mxCell id="n7YNToGmn0SKQ2T-LouQ-37" style="edgeStyle=orthogonalEdgeStyle;rounded=0;orthogonalLoop=1;jettySize=auto;html=1;entryX=0;entryY=1;entryDx=0;entryDy=0;" edge="1" parent="WIyWlLk6GJQsqaUBKTNV-1" source="n7YNToGmn0SKQ2T-LouQ-25" target="lJ6aVyWYcNpA8rli7bff-12">
          <mxGeometry relative="1" as="geometry">
            <Array as="points">
              <mxPoint x="694" y="872" />
              <mxPoint x="694" y="743" />
            </Array>
          </mxGeometry>
        </mxCell>
      </root>
    </mxGraphModel>
  </diagram>
  <diagram id="xZmM9QwZEg-7GCYQhnLI" name="Page-2">
    <mxGraphModel dx="1434" dy="1312" grid="1" gridSize="10" guides="1" tooltips="1" connect="1" arrows="1" fold="1" page="1" pageScale="1" pageWidth="850" pageHeight="1100" math="0" shadow="0">
      <root>
        <mxCell id="0" />
        <mxCell id="1" parent="0" />
      </root>
    </mxGraphModel>
  </diagram>
</mxfile>
